<svg width="49" height="48" viewBox="0 0 49 48" fill="none" xmlns="http://www.w3.org/2000/svg">
<g filter="url(#filter0_d_99_519)">
<rect x="4.5" width="40" height="40" rx="20" fill="white"/>
<path d="M24.5 11.8072C27.1506 11.8072 27.5121 11.8072 28.5964 11.8072C29.5602 11.8072 30.0422 12.0482 30.4036 12.1687C30.8855 12.4096 31.247 12.5301 31.6084 12.8916C31.9699 13.253 32.2108 13.6145 32.3313 14.0964C32.4518 14.4578 32.5723 14.9398 32.6928 15.9036C32.6928 16.988 32.6928 17.2289 32.6928 20C32.6928 22.7711 32.6928 23.0121 32.6928 24.0964C32.6928 25.0602 32.4518 25.5422 32.3313 25.9036C32.0904 26.3855 31.9699 26.747 31.6084 27.1084C31.247 27.4699 30.8855 27.7108 30.4036 27.8313C30.0422 27.9518 29.5602 28.0723 28.5964 28.1928C27.5121 28.1928 27.2711 28.1928 24.5 28.1928C21.7289 28.1928 21.488 28.1928 20.4036 28.1928C19.4398 28.1928 18.9578 27.9518 18.5964 27.8313C18.1145 27.5904 17.753 27.4699 17.3916 27.1084C17.0301 26.747 16.7892 26.3855 16.6687 25.9036C16.5482 25.5422 16.4277 25.0602 16.3072 24.0964C16.3072 23.0121 16.3072 22.7711 16.3072 20C16.3072 17.2289 16.3072 16.988 16.3072 15.9036C16.3072 14.9398 16.5482 14.4578 16.6687 14.0964C16.9096 13.6145 17.0301 13.253 17.3916 12.8916C17.753 12.5301 18.1145 12.2892 18.5964 12.1687C18.9578 12.0482 19.4398 11.9277 20.4036 11.8072C21.488 11.8072 21.8494 11.8072 24.5 11.8072ZM24.5 10C21.7289 10 21.488 10 20.4036 10C19.3193 10 18.5964 10.241 17.994 10.4819C17.3916 10.7229 16.7892 11.0843 16.1867 11.6867C15.5843 12.2892 15.3434 12.7711 14.9819 13.494C14.741 14.0964 14.6205 14.8193 14.5 15.9036C14.5 16.988 14.5 17.3494 14.5 20C14.5 22.7711 14.5 23.0121 14.5 24.0964C14.5 25.1807 14.741 25.9036 14.9819 26.506C15.2229 27.1084 15.5843 27.7108 16.1867 28.3133C16.7892 28.9157 17.2711 29.1566 17.994 29.5181C18.5964 29.759 19.3193 29.8795 20.4036 30C21.488 30 21.8494 30 24.5 30C27.1506 30 27.5121 30 28.5964 30C29.6807 30 30.4036 29.759 31.006 29.5181C31.6084 29.2771 32.2108 28.9157 32.8133 28.3133C33.4157 27.7108 33.6566 27.2289 34.0181 26.506C34.259 25.9036 34.3795 25.1807 34.5 24.0964C34.5 23.0121 34.5 22.6506 34.5 20C34.5 17.3494 34.5 16.988 34.5 15.9036C34.5 14.8193 34.259 14.0964 34.0181 13.494C33.7771 12.8916 33.4157 12.2892 32.8133 11.6867C32.2108 11.0843 31.7289 10.8434 31.006 10.4819C30.4036 10.241 29.6807 10.1205 28.5964 10C27.5121 10 27.2711 10 24.5 10Z" fill="#191919"/>
<path d="M24.5 14.8193C21.6084 14.8193 19.3193 17.1084 19.3193 20C19.3193 22.8916 21.6084 25.1807 24.5 25.1807C27.3916 25.1807 29.6807 22.8916 29.6807 20C29.6807 17.1084 27.3916 14.8193 24.5 14.8193ZM24.5 23.3735C22.6928 23.3735 21.1265 21.9277 21.1265 20C21.1265 18.1928 22.5723 16.6265 24.5 16.6265C26.3072 16.6265 27.8735 18.0723 27.8735 20C27.8735 21.8072 26.3072 23.3735 24.5 23.3735Z" fill="#191919"/>
<path d="M29.8012 15.9036C30.4666 15.9036 31.006 15.3642 31.006 14.6988C31.006 14.0334 30.4666 13.494 29.8012 13.494C29.1358 13.494 28.5964 14.0334 28.5964 14.6988C28.5964 15.3642 29.1358 15.9036 29.8012 15.9036Z" fill="#191919"/>
</g>
<defs>
<filter id="filter0_d_99_519" x="0.5" y="0" width="48" height="48" filterUnits="userSpaceOnUse" color-interpolation-filters="sRGB">
<feFlood flood-opacity="0" result="BackgroundImageFix"/>
<feColorMatrix in="SourceAlpha" type="matrix" values="0 0 0 0 0 0 0 0 0 0 0 0 0 0 0 0 0 0 127 0" result="hardAlpha"/>
<feOffset dy="4"/>
<feGaussianBlur stdDeviation="2"/>
<feComposite in2="hardAlpha" operator="out"/>
<feColorMatrix type="matrix" values="0 0 0 0 0 0 0 0 0 0 0 0 0 0 0 0 0 0 0.25 0"/>
<feBlend mode="normal" in2="BackgroundImageFix" result="effect1_dropShadow_99_519"/>
<feBlend mode="normal" in="SourceGraphic" in2="effect1_dropShadow_99_519" result="shape"/>
</filter>
</defs>
</svg>
