<svg width="22" height="18" viewBox="0 0 22 18" fill="none" xmlns="http://www.w3.org/2000/svg">
<path id="icon" fill-rule="evenodd" clip-rule="evenodd" d="M1 0C0.447715 0 0 0.447715 0 1C0 1.55228 0.447715 2 1 2H21C21.5523 2 22 1.55228 22 1C22 0.447715 21.5523 0 21 0H1ZM1 8C0.447715 8 0 8.44772 0 9C0 9.55229 0.447715 10 1 10H11H21C21.5523 10 22 9.55229 22 9C22 8.44772 21.5523 8 21 8H11H1ZM1 16C0.447715 16 0 16.4477 0 17C0 17.5523 0.447715 18 1 18H21C21.5523 18 22 17.5523 22 17C22 16.4477 21.5523 16 21 16H1Z" fill="#616161"/>
</svg>
