<svg width="66" height="65" viewBox="0 0 66 65" fill="none" xmlns="http://www.w3.org/2000/svg">
<g id="icon-02 1" clip-path="url(#clip0_99_599)">
<g id="Group">
<path id="Vector" d="M11.2646 40.3812H18.8351C20.6377 40.3812 22.0797 38.9729 22.0797 37.2125V29.8187C22.0797 28.0583 20.6377 26.65 18.8351 26.65H11.2646C9.46204 26.65 8.02002 28.0583 8.02002 29.8187V37.2125C8.02002 38.9458 9.46204 40.3812 11.2646 40.3812ZM11.4864 36.9958V30.0354H18.6133V36.9958H11.4864Z" fill="#7CADFE"/>
<path id="Vector_2" d="M11.7636 57.6062H19.3342C21.1367 57.6062 22.5787 56.1979 22.5787 54.4375V47.0437C22.5787 45.2833 21.1367 43.875 19.3342 43.875H11.7636C9.96106 43.875 8.51904 45.2833 8.51904 47.0437V54.4375C8.51904 56.1708 9.98879 57.6062 11.7636 57.6062ZM11.9854 54.2208V47.2604H19.1123V54.2208H11.9854Z" fill="#7CADFE"/>
<path id="Vector_3" d="M52.584 33.9896C53.5268 33.9896 54.3033 33.2313 54.3033 32.3105V29.8459C54.3033 28.0855 52.8613 26.6771 51.0588 26.6771H43.4882C41.6857 26.6771 40.2437 28.0855 40.2437 29.8459V33.773C40.2437 34.6938 41.0201 35.4521 41.963 35.4521C42.9058 35.4521 43.6823 34.6938 43.6823 33.773V30.0625H50.8092V32.3105C50.8647 33.2042 51.6411 33.9896 52.584 33.9896Z" fill="#7CADFE"/>
<path id="Vector_4" d="M38.1915 37.2125V29.8187C38.1915 28.0583 36.7495 26.65 34.947 26.65H27.3764C25.5739 26.65 24.1318 28.0583 24.1318 29.8187V37.2125C24.1318 38.9729 25.5739 40.3812 27.3764 40.3812H34.947C36.7495 40.3812 38.1915 38.9458 38.1915 37.2125ZM34.7251 30.0354V36.9958H27.5982V30.0354H34.7251Z" fill="#7CADFE"/>
<path id="Vector_5" d="M32.9226 47.2603C33.8654 47.2603 34.6419 46.502 34.6419 45.5811C34.6419 44.6603 33.8654 43.8749 32.9226 43.8749H27.3764C25.5739 43.8749 24.1318 45.2832 24.1318 47.0436V54.4374C24.1318 56.1978 25.5739 57.6061 27.3764 57.6061H33.4218C34.3646 57.6061 35.1411 56.8478 35.1411 55.927C35.1411 55.0061 34.3646 54.2478 33.4218 54.2478H27.5982V47.2874H32.9226V47.2603Z" fill="#7CADFE"/>
<path id="Vector_6" d="M33.449 61.1H8.76834C6.93809 61.1 5.46834 59.6375 5.46834 57.877V23.6437H56.9372V34.2604C56.9372 35.1812 57.7137 35.9395 58.6566 35.9395C59.5994 35.9395 60.3759 35.1812 60.3759 34.2604V14.5708C60.3759 10.9145 57.3255 7.96246 53.6095 7.96246H47.2868V5.68746C47.2868 2.84371 44.9297 0.541626 42.0179 0.541626H41.0196C38.1078 0.541626 35.7507 2.84371 35.7507 5.68746V7.93538H26.6272V5.68746C26.6272 2.84371 24.27 0.541626 21.3583 0.541626H20.3599C17.4482 0.541626 15.091 2.84371 15.091 5.68746V7.93538H8.76834C5.02464 7.93538 2.00195 10.9145 2.00195 14.5437V57.877C2.00195 61.5333 5.05237 64.4854 8.76834 64.4854H33.4767C34.4196 64.4854 35.1961 63.727 35.1961 62.8062C35.1961 61.8854 34.4196 61.1 33.449 61.1ZM23.1608 7.93538H18.5574V5.68746C18.5574 4.71246 19.3616 3.92704 20.3599 3.92704H21.3583C22.3566 3.92704 23.1608 4.71246 23.1608 5.68746V7.93538ZM20.1381 17.7125V18.0104C20.1381 18.9312 20.9146 19.6895 21.8574 19.6895C22.8003 19.6895 23.5767 18.9312 23.5767 18.0104V13.5687C23.5767 12.6479 22.8003 11.8895 21.8574 11.8895C20.9146 11.8895 20.1381 12.6479 20.1381 13.5687V14.327C19.2507 14.2187 18.5574 13.4875 18.5574 12.5937V11.3208H35.7507V12.5937C35.7507 15.3562 37.9969 17.6041 40.7978 17.7125V18.0104C40.7978 18.9312 41.5742 19.6895 42.5171 19.6895C43.4599 19.6895 44.2364 18.9312 44.2364 18.0104V13.5687C44.2364 12.6479 43.4599 11.8895 42.5171 11.8895C41.5742 11.8895 40.7978 12.6479 40.7978 13.5687V14.327C39.9104 14.2187 39.2171 13.4875 39.2171 12.5937V11.3208H53.6095C55.4398 11.3208 56.9095 12.7833 56.9095 14.5437V20.2312H5.44061V14.5437C5.44061 12.7562 6.93809 11.3208 8.74061 11.3208H15.0633V12.5937C15.091 15.3562 17.3372 17.6041 20.1381 17.7125ZM41.0196 3.95413H42.0179C43.0162 3.95413 43.8204 4.73954 43.8204 5.71454V7.96246H39.2171V5.68746C39.2171 4.73954 40.0213 3.95413 41.0196 3.95413Z" fill="#7CADFE"/>
<path id="Vector_7" d="M60.9306 38.9187C58.0188 36.1021 54.1919 34.5312 50.0877 34.5312C45.9835 34.5312 42.1289 36.1021 39.2449 38.9187C36.3331 41.7354 34.7524 45.5 34.7524 49.5083C34.7524 53.5167 36.3608 57.2812 39.2449 60.0979C42.1289 62.9146 45.9835 64.4854 50.0877 64.4854C54.1919 64.4854 58.0466 62.9146 60.9306 60.0979C63.8146 57.2812 65.423 53.5167 65.423 49.5083C65.423 45.5 63.8146 41.7354 60.9306 38.9187ZM61.9566 49.5083C61.9566 52.5958 60.7087 55.5208 58.4903 57.7146C56.244 59.9083 53.2768 61.1 50.0877 61.1C46.9264 61.1 43.9314 59.8813 41.6852 57.7146C39.439 55.5208 38.2188 52.6229 38.2188 49.5083C38.2188 46.4208 39.4667 43.4958 41.6852 41.3021C43.9314 39.1083 46.8987 37.9167 50.0877 37.9167C53.2491 37.9167 56.244 39.1354 58.4903 41.3021C60.7087 43.4958 61.9566 46.4208 61.9566 49.5083Z" fill="#7CADFE"/>
<path id="Vector_8" d="M51.8073 41.9249V41.1395C51.8073 40.2187 51.0309 39.4603 50.088 39.4603C49.1451 39.4603 48.3687 40.2187 48.3687 41.1395V41.9249C46.1224 42.0332 44.3477 43.8478 44.3477 46.0687V47.0437C44.3477 49.3457 46.2611 51.1874 48.5905 51.1874H51.6132C52.0569 51.1874 52.3897 51.5395 52.3897 51.9457V52.9207C52.3897 53.3541 52.0292 53.6791 51.6132 53.6791H48.5905C48.1468 53.6791 47.814 53.327 47.814 52.9207V52.4332C47.814 51.5124 47.0376 50.7541 46.0947 50.7541C45.1519 50.7541 44.3754 51.5124 44.3754 52.4332V52.9207C44.3754 55.1416 46.1779 56.9562 48.3964 57.0645V57.8499C48.3964 58.7708 49.1729 59.5291 50.1157 59.5291C51.0586 59.5291 51.8351 58.7708 51.8351 57.8499V57.0645C54.0813 56.9562 55.8561 55.1416 55.8561 52.9207V51.9457C55.8561 49.6437 53.9426 47.802 51.6132 47.802H48.5905C48.1468 47.802 47.814 47.4499 47.814 47.0437V46.0687C47.814 45.6353 48.1745 45.3103 48.5905 45.3103H51.6132C52.0569 45.3103 52.3897 45.6624 52.3897 46.0687V46.5562C52.3897 47.477 53.1661 48.2353 54.109 48.2353C55.0519 48.2353 55.8283 47.477 55.8283 46.5562V46.0687C55.8561 43.8478 54.0535 42.0332 51.8073 41.9249Z" fill="#7CADFE"/>
</g>
</g>
<defs>
<clipPath id="clip0_99_599">
<rect width="66" height="65" fill="white"/>
</clipPath>
</defs>
</svg>
