<svg width="65" height="64" viewBox="0 0 65 64" fill="none" xmlns="http://www.w3.org/2000/svg">
<g id="icone">
<path id="Union" fill-rule="evenodd" clip-rule="evenodd" d="M6.41597 2.70938H36.8892C38.6602 2.70938 40.0958 4.14502 40.0958 5.91597C40.0958 7.68692 38.6602 9.12256 36.8892 9.12256H6.41597C4.64502 9.12256 3.20938 7.68692 3.20938 5.91597C3.20938 4.14502 4.64502 2.70938 6.41597 2.70938ZM0.5 5.91597C0.5 2.64867 3.14867 0 6.41597 0H36.8892C40.1565 0 42.8052 2.64867 42.8052 5.91597C42.8052 7.10644 42.4536 8.21479 41.8485 9.14281H51.5333C54.8006 9.14281 57.4493 11.7915 57.4493 15.0588C57.4493 18.3261 54.8006 20.9747 51.5333 20.9747H48.3567C48.9618 21.9028 49.3135 23.0112 49.3135 24.2018C49.3135 25.9217 48.5796 27.4701 47.4079 28.5511C48.8912 29.6261 49.856 31.3726 49.856 33.3446C49.856 35.1782 49.0218 36.817 47.7122 37.9021C48.7053 38.9603 49.3135 40.3839 49.3135 41.9496C49.3135 43.7911 48.4722 45.436 47.1529 46.5211C48.4722 47.6061 49.3135 49.251 49.3135 51.0925C49.3135 54.3598 46.6648 57.0084 43.3975 57.0084H12.9243C9.65698 57.0084 7.0083 54.3598 7.0083 51.0925C7.0083 49.251 7.84964 47.6061 9.16888 46.5211C7.84964 45.436 7.0083 43.7911 7.0083 41.9496C7.0083 40.116 7.8425 38.4772 9.15209 37.3921C8.15901 36.3339 7.55078 34.9103 7.55078 33.3446C7.55078 31.6247 8.28468 30.0763 9.45639 28.9953C7.97309 27.9203 7.0083 26.1738 7.0083 24.2018C7.0083 20.9345 9.65697 18.2859 12.9243 18.2859H16.1009C15.4957 17.3578 15.144 16.2494 15.144 15.0588C15.144 13.8683 15.4957 12.76 16.1007 11.8319H6.41597C3.14867 11.8319 0.5 9.18327 0.5 5.91597ZM13.4668 39.2605C12.8478 39.2605 12.251 39.1655 11.6902 38.9891C10.5318 39.4726 9.71768 40.616 9.71768 41.9496C9.71768 43.7206 11.1533 45.1562 12.9243 45.1562H43.3975C45.1685 45.1562 46.6041 43.7206 46.6041 41.9496C46.6041 40.7593 45.9555 39.7204 44.9925 39.1672C44.6509 39.2285 44.2992 39.2605 43.94 39.2605H13.4668ZM47.1466 33.3446C47.1466 34.6782 46.3325 35.8217 45.1741 36.3051C44.6133 36.1287 44.0165 36.0337 43.3975 36.0337H12.9243C12.5651 36.0337 12.2134 36.0657 11.8718 36.127C10.9088 35.5738 10.2602 34.5349 10.2602 33.3446C10.2602 31.5736 11.6958 30.138 13.4667 30.138H43.94C45.711 30.138 47.1466 31.5736 47.1466 33.3446ZM21.06 11.8522H51.5333C53.3042 11.8522 54.7399 13.2878 54.7399 15.0588C54.7399 16.8297 53.3042 18.2654 51.5333 18.2654H21.06C19.2891 18.2654 17.8534 16.8297 17.8534 15.0588C17.8534 13.2878 19.2891 11.8522 21.06 11.8522ZM43.3975 20.9952H12.9243C11.1533 20.9952 9.71768 22.4309 9.71768 24.2018C9.71768 25.9728 11.1533 27.4084 12.9243 27.4084H43.3975C45.1685 27.4084 46.6041 25.9728 46.6041 24.2018C46.6041 22.4309 45.1685 20.9952 43.3975 20.9952ZM12.9243 47.8859H43.3975C45.1685 47.8859 46.6041 49.3215 46.6041 51.0925C46.6041 52.8634 45.1685 54.2991 43.3975 54.2991H12.9243C11.1533 54.2991 9.71768 52.8634 9.71768 51.0925C9.71768 49.3215 11.1533 47.8859 12.9243 47.8859Z" fill="#7CADFE"/>
<path id="Ellipse 126" d="M63.1448 42.7563C63.1448 53.7299 54.1703 62.6453 43.0756 62.6453C31.981 62.6453 23.0065 53.7299 23.0065 42.7563C23.0065 31.7826 31.981 22.8673 43.0756 22.8673C54.1703 22.8673 63.1448 31.7826 63.1448 42.7563Z" fill="white" stroke="#7CADFE" stroke-width="2.70938"/>
<path id="Vector 10" d="M49.3149 28.2352C53.6539 30.1176 61.7896 37.647 56.3658 49.21" stroke="#7CADFE" stroke-width="2.70938" stroke-linecap="round" stroke-linejoin="round"/>
<path id="Vector 11" d="M29.8208 34.9581C27.4883 39.0453 25.535 49.909 36.8702 55.9334" stroke="#7CADFE" stroke-width="2.70938" stroke-linecap="round" stroke-linejoin="round"/>
<path id="Vector 13" d="M47.1741 38.4538C47.1741 37.1092 46.3605 34.4201 43.1063 34.4201M43.1063 34.4201C39.852 34.4201 39.0385 36.7507 39.0385 37.9159C38.8577 39.0812 39.4181 41.4655 43.1063 41.6807C46.7944 41.8958 47.3549 44.2801 47.1741 45.4454C47.2645 46.6106 46.5775 48.9412 43.1063 48.9412M43.1063 34.4201V32.8067M43.1063 48.9412C39.6351 48.9412 38.9481 46.4314 39.0385 45.1765M43.1063 48.9412V50.5546" stroke="#7CADFE" stroke-width="2.70938" stroke-linecap="round" stroke-linejoin="round"/>
<ellipse id="Ellipse 127" cx="41.4492" cy="56.7392" rx="1.35594" ry="1.34419" fill="#7CADFE"/>
<ellipse id="Ellipse 128" cx="45.2461" cy="27.1594" rx="1.35594" ry="1.34419" fill="#7CADFE"/>
</g>
</svg>
