<svg width="65" height="64" viewBox="0 0 65 64" fill="none" xmlns="http://www.w3.org/2000/svg">
<path id="icone " fill-rule="evenodd" clip-rule="evenodd" d="M41.4479 1.35469C41.4479 0.606514 40.8414 0 40.0933 0C39.3451 0 38.7386 0.606514 38.7386 1.35469V8.16338C38.7386 8.91155 39.3451 9.51807 40.0933 9.51807C40.8414 9.51807 41.4479 8.91155 41.4479 8.16338V1.35469ZM11.3477 30.5055C10.5995 30.5055 9.99297 31.112 9.99297 31.8602C9.99297 32.6084 10.5995 33.2149 11.3477 33.2149H18.1273C18.8755 33.2149 19.482 32.6084 19.482 31.8602C19.482 31.112 18.8755 30.5055 18.1273 30.5055H11.3477ZM30.7123 12.6192C30.9601 12.2242 31.3936 11.9844 31.8599 11.9844H48.603C49.0574 11.9844 49.4816 12.2123 49.7325 12.5912L54.782 20.2169C54.8255 20.2827 54.8626 20.3509 54.8933 20.4208H59.0812C62.0739 20.4208 64.5 22.8468 64.5 25.8395V58.5813C64.5 61.574 62.0739 64 59.0812 64H5.91875C2.92606 64 0.5 61.574 0.5 58.5813V25.8395C0.5 22.8468 2.92606 20.4208 5.91875 20.4208H9.72021V18.494C9.72021 15.9479 11.7843 13.8838 14.3304 13.8838C16.8765 13.8838 18.9406 15.9479 18.9406 18.494V20.4208H25.8354C25.8617 20.3608 25.8928 20.3021 25.9286 20.245L30.7123 12.6192ZM18.9406 23.1437V23.1301H59.0812C60.5776 23.1301 61.7906 24.3432 61.7906 25.8395V58.5813C61.7906 60.0776 60.5776 61.2906 59.0812 61.2906H5.91875C4.4224 61.2906 3.20938 60.0776 3.20938 58.5813V25.8395C3.20938 24.3432 4.42241 23.1301 5.91875 23.1301H9.72021V23.1437H12.4296H16.2312H18.9406ZM16.2312 18.494V20.4208H12.4296V18.494C12.4296 17.4442 13.2806 16.5932 14.3304 16.5932C15.3802 16.5932 16.2312 17.4442 16.2312 18.494ZM29.0167 20.4208H51.6674L47.8752 14.6938H32.6093L29.0167 20.4208ZM30.7439 2.02885C30.216 1.49868 29.3601 1.49868 28.8322 2.02885C28.3043 2.55901 28.3043 3.41859 28.8322 3.94875L33.6262 8.76323C34.1541 9.29339 35.01 9.29339 35.5379 8.76323C36.0658 8.23306 36.0658 7.37349 35.5379 6.84332L30.7439 2.02885ZM51.8094 2.02885C52.3373 2.55901 52.3373 3.41859 51.8094 3.94875L47.0154 8.76323C46.4875 9.29339 45.6316 9.29339 45.1037 8.76323C44.5758 8.23306 44.5758 7.37349 45.1037 6.84332L49.8977 2.02885C50.4256 1.49868 51.2815 1.49868 51.8094 2.02885ZM47.6889 42.2103C47.6889 46.4412 44.2771 49.851 40.0932 49.851C35.9093 49.851 32.4975 46.4412 32.4975 42.2103C32.4975 37.9793 35.9093 34.5696 40.0932 34.5696C44.2771 34.5696 47.6889 37.9793 47.6889 42.2103ZM50.3983 42.2103C50.3983 47.9265 45.7845 52.5603 40.0932 52.5603C34.4018 52.5603 29.7881 47.9265 29.7881 42.2103C29.7881 36.4941 34.4018 31.8602 40.0932 31.8602C45.7845 31.8602 50.3983 36.4941 50.3983 42.2103ZM29.0086 32.7011C28.5688 32.1989 28.5632 31.4444 29.037 30.974C29.0861 30.9253 29.1355 30.8769 29.1853 30.8287C29.7088 30.3226 30.5412 30.3953 31.021 30.9431L31.1184 31.0543C31.5705 31.5705 31.4982 32.3555 31.0079 32.8356C30.475 33.3575 29.599 33.3752 29.1075 32.8141L29.0086 32.7011ZM27.8334 35.6253C27.2031 34.9056 26.0538 35.0158 25.6723 35.8931C24.831 37.8277 24.3643 39.9643 24.3643 42.2103C24.3643 50.935 31.4063 58.0078 40.0931 58.0078C48.7799 58.0078 55.8219 50.935 55.8219 42.2103C55.8219 33.4856 48.7799 26.4128 40.0931 26.4128C37.991 26.4128 35.9853 26.827 34.1524 27.5785C33.3304 27.9155 33.1454 28.9571 33.7307 29.6254C34.1431 30.0962 34.8168 30.2254 35.4001 29.9987C36.8567 29.4325 38.4394 29.1222 40.0931 29.1222C47.2724 29.1222 53.1125 34.9708 53.1125 42.2103C53.1125 49.4498 47.2724 55.2984 40.0931 55.2984C32.9137 55.2984 27.0736 49.4498 27.0736 42.2103C27.0736 40.4323 27.4259 38.7383 28.0637 37.1941C28.2817 36.6665 28.2095 36.0548 27.8334 35.6253ZM42.8074 42.2099C42.8074 42.7397 43.1745 43.2997 43.7044 43.2997H44.4198C44.9948 43.2997 45.5045 42.8935 45.5157 42.3186C45.5164 42.2825 45.5168 42.2462 45.5168 42.2099C45.5168 39.2016 43.0885 36.7629 40.093 36.7629C40.0566 36.7629 40.0203 36.7633 39.984 36.764C39.4121 36.7753 39.0083 37.2828 39.0083 37.8549V38.5837C39.0083 39.1096 39.5671 39.4723 40.093 39.4723C41.5812 39.4723 42.8074 40.687 42.8074 42.2099ZM37.6018 43.2994C37.6018 43.2996 37.6017 43.2997 37.6016 43.2997H34.7781L34.7779 43.2996C34.7778 43.2994 34.7779 43.2993 34.7781 43.2993H37.6016L37.6018 43.2994Z" fill="#7CADFE"/>
</svg>
