<svg width="73" height="66" viewBox="0 0 73 66" fill="none" xmlns="http://www.w3.org/2000/svg">
<g id="icon-04 1" clip-path="url(#clip0_99_562)">
<g id="Group">
<path id="Vector" d="M19.1293 27.4176C23.6197 27.4176 27.2888 23.7326 27.2888 19.2226C27.2888 14.7126 23.6197 11.0276 19.1293 11.0276C14.6388 11.0276 10.9697 14.7126 10.9697 19.2226C10.9697 23.7326 14.6388 27.4176 19.1293 27.4176ZM14.1459 19.2226C14.1459 16.4726 16.3912 14.2176 19.1293 14.2176C21.8673 14.2176 24.1126 16.4726 24.1126 19.2226C24.1126 21.9726 21.8947 24.2276 19.1293 24.2276C16.3912 24.2276 14.1459 21.9726 14.1459 19.2226Z" fill="#7CADFE"/>
<path id="Vector_2" d="M19.1291 51.37C18.2529 51.37 17.541 52.085 17.541 52.965V64.075C17.541 64.955 18.2529 65.67 19.1291 65.67C20.0053 65.67 20.7172 64.955 20.7172 64.075V52.965C20.7172 52.085 20.0053 51.37 19.1291 51.37Z" fill="#7CADFE"/>
<path id="Vector_3" d="M37.9943 37.1249C40.6228 37.1249 42.7585 34.9799 42.7585 32.3399C42.7585 29.6999 40.6228 27.5549 37.9943 27.5549H25.7823C25.755 27.5549 25.755 27.5549 25.7276 27.5549C25.7002 27.5549 25.7002 27.5549 25.6728 27.5549H12.5573C9.10735 27.5549 6.28711 30.3874 6.28711 33.8524V48.2624C6.28711 51.1774 8.25854 53.6524 10.8871 54.3674V64.1024C10.8871 64.9824 11.599 65.6974 12.4752 65.6974C13.3514 65.6974 14.0633 64.9824 14.0633 64.1024V39.0224C14.0633 38.1424 13.3514 37.4274 12.4752 37.4274C11.599 37.4274 10.8871 38.1424 10.8871 39.0224V50.9024C10.0109 50.3524 9.43592 49.3624 9.43592 48.2349V33.8249C9.43592 32.0924 10.8323 30.6899 12.5573 30.6899H25.6728C25.7002 30.6899 25.7002 30.6899 25.7276 30.6899C25.755 30.6899 25.755 30.6899 25.7823 30.6899H37.9943C38.8704 30.6899 39.6097 31.4049 39.6097 32.3124C39.6097 33.1924 38.8978 33.9349 37.9943 33.9349H25.7823C24.9062 33.9349 24.1943 34.6499 24.1943 35.5299V64.0749C24.1943 64.9549 24.9062 65.6699 25.7823 65.6699C26.6585 65.6699 27.3704 64.9549 27.3704 64.0749V37.1249H37.9943Z" fill="#7CADFE"/>
<path id="Vector_4" d="M67.621 0H2.78292C1.90673 0 1.19482 0.715 1.19482 1.595V32.835V43.945C1.19482 44.22 1.27697 44.4675 1.38649 44.715C1.63292 45.1825 2.12578 45.5125 2.6734 45.54C2.70078 45.54 2.72816 45.54 2.75554 45.54C3.63173 45.54 4.34363 44.825 4.34363 43.945V42.35V32.835V3.1625H66.0329V42.3225H31.177C30.3008 42.3225 29.5889 43.0375 29.5889 43.9175C29.5889 44.7975 30.3008 45.5125 31.177 45.5125H67.6484C68.5246 45.5125 69.2365 44.7975 69.2365 43.9175V1.5675C69.2091 0.715 68.4972 0 67.621 0Z" fill="#7CADFE"/>
<path id="Vector_5" d="M33.203 25.0249V21.7799C33.203 20.8999 32.4911 20.1849 31.6149 20.1849C30.7388 20.1849 30.0269 20.8999 30.0269 21.7799V25.0249C30.0269 25.9049 30.7388 26.6199 31.6149 26.6199C32.4911 26.6199 33.203 25.9049 33.203 25.0249Z" fill="#7CADFE"/>
<path id="Vector_6" d="M41.4174 25.025V17.875C41.4174 16.995 40.7055 16.28 39.8293 16.28C38.9531 16.28 38.2412 16.995 38.2412 17.875V25.025C38.2412 25.905 38.9531 26.62 39.8293 26.62C40.7055 26.62 41.4174 25.905 41.4174 25.025Z" fill="#7CADFE"/>
<path id="Vector_7" d="M49.6318 35.53V12.98C49.6318 12.1 48.9198 11.385 48.0437 11.385C47.1675 11.385 46.4556 12.1 46.4556 12.98V35.53C46.4556 36.41 47.1675 37.125 48.0437 37.125C48.9198 37.125 49.6318 36.41 49.6318 35.53Z" fill="#7CADFE"/>
<path id="Vector_8" d="M57.8188 35.53V8.08499C57.8188 7.20499 57.1069 6.48999 56.2307 6.48999C55.3545 6.48999 54.6426 7.20499 54.6426 8.08499V35.5025C54.6426 36.3825 55.3545 37.0975 56.2307 37.0975C57.1069 37.125 57.8188 36.41 57.8188 35.53Z" fill="#7CADFE"/>
</g>
</g>
<defs>
<clipPath id="clip0_99_562">
<rect width="72" height="66" fill="white" transform="translate(0.5)"/>
</clipPath>
</defs>
</svg>
