<svg width="68" height="65" viewBox="0 0 68 65" fill="none" xmlns="http://www.w3.org/2000/svg">
<path id="icone" fill-rule="evenodd" clip-rule="evenodd" d="M32.3904 2.70938H25.3799V3.85393C25.3799 5.94882 23.6816 7.64706 21.5868 7.64706H14.0529C11.9581 7.64706 10.2598 5.94882 10.2598 3.85393V2.70938H3.25125C2.95199 2.70938 2.70938 2.95198 2.70938 3.25126V61.7487C2.70938 62.048 2.95198 62.2906 3.25126 62.2906H32.3904C32.6897 62.2906 32.9323 62.048 32.9323 61.7487V3.25125C32.9323 2.95199 32.6897 2.70938 32.3904 2.70938ZM12.9692 2.70938H22.6705V3.85393C22.6705 4.45247 22.1853 4.93768 21.5868 4.93768H14.0529C13.4544 4.93768 12.9692 4.45247 12.9692 3.85393V2.70938ZM32.3904 0H25.3799H22.6705H12.9692H10.2598H3.25125C1.45564 0 0 1.45564 0 3.25126V61.7487C0 63.5444 1.45564 65 3.25126 65H32.3904C34.186 65 35.6416 63.5444 35.6416 61.7487V3.25125C35.6416 1.45564 34.186 0 32.3904 0ZM18.091 43.173C23.5744 43.173 28.0722 38.6684 28.0722 33.0463C28.0722 27.4242 23.5744 22.9195 18.091 22.9195C12.6076 22.9195 8.10977 27.4242 8.10977 33.0463C8.10977 38.6684 12.6076 43.173 18.091 43.173ZM18.091 45.8824C25.0998 45.8824 30.7816 40.1355 30.7816 33.0463C30.7816 25.9571 25.0998 20.2101 18.091 20.2101C11.0822 20.2101 5.40039 25.9571 5.40039 33.0463C5.40039 40.1355 11.0822 45.8824 18.091 45.8824ZM24.1844 30.4486C24.7104 29.9165 24.7055 29.0588 24.1734 28.5328C23.6413 28.0068 22.7836 28.0117 22.2576 28.5438L16.741 34.1239L13.9243 31.2749C13.3983 30.7428 12.5406 30.7379 12.0085 31.2639C11.4765 31.7899 11.4716 32.6476 11.9976 33.1797L15.7776 37.0032C16.0321 37.2606 16.379 37.4055 16.741 37.4055C17.1029 37.4055 17.4498 37.2606 17.7043 37.0032L24.1844 30.4486ZM38.6773 35.2866C37.9317 35.2238 37.2764 35.7772 37.2136 36.5227C37.1507 37.2683 37.7042 37.9236 38.4497 37.9864C39.0653 38.0383 39.9411 38.2796 41.0177 38.6962C42.0732 39.1046 43.237 39.6477 44.4027 40.2405C46.089 41.0982 47.737 42.0383 49.0128 42.7836C48.7517 42.8528 48.3983 42.9164 47.9588 42.968C47.0565 43.074 45.9114 43.1163 44.7115 43.0997C43.5158 43.0832 42.2986 43.0087 41.2597 42.8906C40.1836 42.7683 39.4141 42.6111 39.0439 42.4707C38.3444 42.2054 37.5622 42.5574 37.2968 43.2569C37.0315 43.9565 37.3835 44.7387 38.083 45.004C38.7929 45.2732 39.8528 45.4575 40.9536 45.5826C42.0917 45.712 43.3992 45.7912 44.6741 45.8088C45.9448 45.8264 47.2162 45.7833 48.275 45.6589C48.8027 45.5969 49.3079 45.5112 49.747 45.3919C50.1472 45.2831 50.6525 45.1058 51.0471 44.7732C51.3029 44.5576 51.4589 44.2676 51.5101 43.9616C53.8773 44.7185 57.0087 45.7305 59.6703 46.6139C61.1869 47.1173 62.5433 47.5764 63.5171 47.9219C64.0067 48.0955 64.385 48.2353 64.6347 48.3352L64.6713 48.3499C64.6826 48.3607 64.6933 48.3706 64.7032 48.3796C64.7723 48.442 64.8381 48.4902 64.8621 48.5077L64.8638 48.509L64.8972 48.5333L64.909 48.5419L64.9156 48.5521C64.9184 48.5567 64.9217 48.5621 64.9253 48.5686C65.0204 48.737 65.2901 49.4059 65.2901 51.3844C65.2901 52.4048 65.2728 53.1869 65.2158 53.7977C65.1577 54.4213 65.0664 54.7563 64.9814 54.9361C64.9215 55.0628 64.8836 55.0818 64.8324 55.105C64.7234 55.1544 64.4768 55.2188 63.9447 55.2188H63.9333H63.922H63.9107H63.8994H63.8881H63.8769H63.8657H63.8545H63.8434H63.8323H63.8212H63.8101H63.7991H63.7881H63.7771H63.7662H63.7553H63.7444H63.7335H63.7227H63.7119H63.7011H63.6904H63.6797H63.669H63.6583H63.6477H63.6371H63.6265H63.616H63.6055H63.595H63.5845H63.5741H63.5637H63.5533H63.543H63.5327H63.5224H63.5121H63.5019H63.4917H63.4815H63.4714H63.4612H63.4511H63.4411H63.431H63.421H63.4111H63.4011H63.3912H63.3813H63.3714H63.3616H63.3517H63.342H63.3322H63.3225H63.3128H63.3031H63.2934H63.2838H63.2742H63.2646H63.2551H63.2456H63.2361H63.2266H63.2172H63.2078H63.1984H63.1891H63.1797H63.1704H63.1612H63.1519H63.1427H63.1335H63.1243H63.1152H63.1061H63.097H63.0879H63.0789H63.0699H63.0609H63.052H63.0431H63.0342H63.0253H63.0164H63.0076H62.9988H62.9901H62.9813H62.9726H62.9639H62.9553H62.9466H62.938H62.9294H62.9209H62.9123H62.9038H62.8954H62.8869H62.8785H62.8701H62.8617H62.8533H62.845H62.8367H62.8284H62.8202H62.812H62.8038H62.7956H62.7875H62.7793H62.7712H62.7632H62.7551H62.7471H62.7391H62.7312H62.7232H62.7153H62.7074H62.6995H62.6917H62.6839H62.6761H62.6683H62.6606H62.6529H62.6452H62.6375H62.6299H62.6223H62.6147H62.6071H62.5996H62.592H62.5889C62.5932 55.1247 62.5954 55.03 62.5954 54.9348C62.5954 51.6164 59.936 48.9264 56.6554 48.9264C53.3748 48.9264 50.7153 51.6164 50.7153 54.9348C50.7153 55.2165 50.7345 55.4936 50.7716 55.765H38.5635C37.8153 55.765 37.2088 56.3715 37.2088 57.1197C37.2088 57.8679 37.8153 58.4744 38.5635 58.4744H51.5241C51.6294 58.4744 51.7318 58.4624 51.8301 58.4397C52.9084 59.9559 54.6679 60.9432 56.6554 60.9432C58.8584 60.9432 60.7814 59.73 61.8069 57.9282H61.8095H61.814H61.8186H61.8232H61.8278H61.8324H61.837H61.8417H61.8464H61.8511H61.8558H61.8606H61.8654H61.8702H61.875H61.8798H61.8847H61.8895H61.8944H61.8994H61.9043H61.9093H61.9142H61.9193H61.9243H61.9293H61.9344H61.9395H61.9446H61.9497H61.9549H61.9601H61.9653H61.9705H61.9757H61.981H61.9863H61.9916H61.9969H62.0023H62.0076H62.013H62.0184H62.0239H62.0293H62.0348H62.0403H62.0459H62.0514H62.057H62.0626H62.0682H62.0738H62.0795H62.0852H62.0909H62.0966H62.1023H62.1081H62.1139H62.1197H62.1256H62.1314H62.1373H62.1432H62.1491H62.1551H62.1611H62.1671H62.1731H62.1791H62.1852H62.1913H62.1974H62.2035H62.2097H62.2159H62.2221H62.2283H62.2345H62.2408H62.2471H62.2534H62.2598H62.2661H62.2725H62.2789H62.2854H62.2918H62.2983H62.3048H62.3113H62.3179H62.3245H62.3311H62.3377H62.3443H62.351H62.3577H62.3644H62.3711H62.3779H62.3847H62.3915H62.3983H62.4052H62.4121H62.419H62.4259H62.4329H62.4399H62.4469H62.4539H62.4609H62.468H62.4751H62.4822H62.4894H62.4966H62.5038H62.511H62.5182H62.5255H62.5328H62.5401H62.5475H62.5548H62.5622H62.5696H62.5771H62.5846H62.592H62.5996H62.6071H62.6147H62.6223H62.6299H62.6375H62.6452H62.6529H62.6606H62.6683H62.6761H62.6839H62.6917H62.6995H62.7074H62.7153H62.7232H62.7312H62.7391H62.7471H62.7551H62.7632H62.7712H62.7793H62.7875H62.7956H62.8038H62.812H62.8202H62.8284H62.8367H62.845H62.8533H62.8617H62.8701H62.8785H62.8869H62.8954H62.9038H62.9123H62.9209H62.9294H62.938H62.9466H62.9553H62.9639H62.9726H62.9813H62.9901H62.9988H63.0076H63.0164H63.0253H63.0342H63.0431H63.052H63.0609H63.0699H63.0789H63.0879H63.097H63.1061H63.1152H63.1243H63.1335H63.1427H63.1519H63.1612H63.1704H63.1797H63.1891H63.1984H63.2078H63.2172H63.2266H63.2361H63.2456H63.2551H63.2646H63.2742H63.2838H63.2934H63.3031H63.3128H63.3225H63.3322H63.342H63.3517H63.3616H63.3714H63.3813H63.3912H63.4011H63.4111H63.421H63.431H63.4411H63.4511H63.4612H63.4714H63.4815H63.4917H63.5019H63.5121H63.5224H63.5327H63.543H63.5533H63.5637H63.5741H63.5845H63.595H63.6055H63.616H63.6265H63.6371H63.6477H63.6583H63.669H63.6797H63.6904H63.7011H63.7119H63.7227H63.7335H63.7444H63.7553H63.7662H63.7771H63.7881H63.7991H63.8101H63.8212H63.8323H63.8434H63.8545H63.8657H63.8769H63.8881H63.8994H63.9107H63.922H63.9333H63.9447C64.6276 57.9282 65.3261 57.856 65.9512 57.5726C66.6341 57.2629 67.1194 56.7528 67.4307 56.0943C67.717 55.4889 67.8451 54.7827 67.9135 54.0493C67.9831 53.3031 67.9995 52.4123 67.9995 51.3844C67.9995 49.2663 67.7292 48.0235 67.2843 47.2359C67.0703 46.8571 66.8347 46.6165 66.6352 46.4531C66.5875 46.3907 66.5484 46.3508 66.533 46.3351L66.5329 46.335L66.5293 46.3314C66.4291 46.2283 66.3333 46.1619 66.2905 46.1332C66.1957 46.0697 66.1035 46.023 66.0503 45.997C65.9311 45.9386 65.7864 45.8777 65.6405 45.8194C65.3397 45.6991 64.9206 45.5449 64.4229 45.3684C63.4223 45.0134 62.0448 44.5473 60.5238 44.0425C57.5392 43.0519 53.9724 41.9022 51.541 41.1274L51.4637 41.0818C50.1409 40.3008 47.9258 38.9927 45.6309 37.8256C44.4205 37.2099 43.1677 36.623 41.9955 36.1694C40.8446 35.724 39.6817 35.3713 38.6773 35.2866ZM59.886 54.9348C59.886 56.7861 58.4105 58.2338 56.6554 58.2338C54.9003 58.2338 53.4247 56.7861 53.4247 54.9348C53.4247 53.0835 54.9003 51.6357 56.6554 51.6357C58.4105 51.6357 59.886 53.0835 59.886 54.9348ZM46.3946 49.4729C46.3946 50.0762 45.9111 50.5653 45.3145 50.5653C44.718 50.5653 44.2344 50.0762 44.2344 49.4729C44.2344 48.8695 44.718 48.3804 45.3145 48.3804C45.9111 48.3804 46.3946 48.8695 46.3946 49.4729ZM42.0743 53.2963C42.6708 53.2963 43.1544 52.8072 43.1544 52.2038C43.1544 51.6005 42.6708 51.1114 42.0743 51.1114C41.4777 51.1114 40.9941 51.6005 40.9941 52.2038C40.9941 52.8072 41.4777 53.2963 42.0743 53.2963ZM39.9147 49.4729C39.9147 50.0762 39.4311 50.5653 38.8345 50.5653C38.238 50.5653 37.7544 50.0762 37.7544 49.4729C37.7544 48.8695 38.238 48.3804 38.8345 48.3804C39.4311 48.3804 39.9147 48.8695 39.9147 49.4729ZM52.922 18.0471C54.3788 18.0471 55.6126 16.8439 55.6126 15.2943C55.6126 13.7446 54.3788 12.5415 52.922 12.5415C51.4651 12.5415 50.2313 13.7446 50.2313 15.2943C50.2313 16.8439 51.4651 18.0471 52.922 18.0471ZM52.922 20.7565C55.9044 20.7565 58.322 18.311 58.322 15.2943C58.322 12.2776 55.9044 9.8321 52.922 9.8321C49.9396 9.8321 47.522 12.2776 47.522 15.2943C47.522 18.311 49.9396 20.7565 52.922 20.7565ZM52.9236 4.10749C45.4246 4.10749 41.2079 11.0631 42.4118 17.4566C42.8316 19.6859 44.4282 23.0038 46.2267 26.0963C48.0476 29.2273 50.2119 32.3575 51.923 34.2325C52.1899 34.5249 52.5713 34.686 52.967 34.6733C53.3627 34.6606 53.733 34.4755 53.9806 34.1666C55.3407 32.47 57.5632 29.6123 59.5063 26.5498C60.4779 25.0185 61.3934 23.4146 62.0983 21.8628C62.7962 20.3262 63.3244 18.7618 63.4533 17.3271C63.7463 14.0666 63.0376 10.7943 61.2711 8.2983C59.4756 5.76119 56.6366 4.10749 52.9236 4.10749ZM45.0744 16.9552C44.1184 11.878 47.4619 6.81687 52.9236 6.81687C55.7414 6.81687 57.7626 8.03082 59.0596 9.86346C60.3857 11.7372 61.0018 14.3367 60.7548 17.0846C60.6651 18.0827 60.2739 19.3278 59.6314 20.7423C58.9959 22.1416 58.1499 23.6304 57.2186 25.0982C55.7774 27.3696 54.1649 29.5394 52.8882 31.1794C51.5367 29.4756 49.9658 27.1363 48.5688 24.7342C46.7734 21.647 45.3999 18.6834 45.0744 16.9552Z" fill="#7CADFE"/>
</svg>
