<svg width="49" height="48" viewBox="0 0 49 48" fill="none" xmlns="http://www.w3.org/2000/svg">
<g id="socials" filter="url(#filter0_d_99_522)">
<rect id="Rectangle 1" x="4.5" width="40" height="40" rx="20" fill="white"/>
<path id="Vector" d="M25.4825 27C17.966 27 13.6786 21.7447 13.5 13H17.2651C17.3888 19.4184 20.1646 22.1371 22.3632 22.6977V13H25.9085V18.5355C28.0796 18.2973 30.3607 15.7748 31.1302 13H34.6755C34.3855 14.4391 33.8075 15.8017 32.9776 17.0025C32.1477 18.2033 31.0837 19.2166 29.8523 19.979C31.2269 20.6756 32.441 21.6615 33.4145 22.8717C34.388 24.082 35.0988 25.489 35.5 27H31.5974C31.2373 25.6876 30.5054 24.5128 29.4934 23.6228C28.4814 22.7328 27.2343 22.1673 25.9085 21.997V27H25.4825V27Z" fill="#191919"/>
</g>
<defs>
<filter id="filter0_d_99_522" x="0.5" y="0" width="48" height="48" filterUnits="userSpaceOnUse" color-interpolation-filters="sRGB">
<feFlood flood-opacity="0" result="BackgroundImageFix"/>
<feColorMatrix in="SourceAlpha" type="matrix" values="0 0 0 0 0 0 0 0 0 0 0 0 0 0 0 0 0 0 127 0" result="hardAlpha"/>
<feOffset dy="4"/>
<feGaussianBlur stdDeviation="2"/>
<feComposite in2="hardAlpha" operator="out"/>
<feColorMatrix type="matrix" values="0 0 0 0 0 0 0 0 0 0 0 0 0 0 0 0 0 0 0.25 0"/>
<feBlend mode="normal" in2="BackgroundImageFix" result="effect1_dropShadow_99_522"/>
<feBlend mode="normal" in="SourceGraphic" in2="effect1_dropShadow_99_522" result="shape"/>
</filter>
</defs>
</svg>
