<svg width="49" height="48" viewBox="0 0 49 48" fill="none" xmlns="http://www.w3.org/2000/svg">
<g id="socials" filter="url(#filter0_d_99_520)">
<rect id="Rectangle 1" x="4.5" width="40" height="40" rx="20" fill="white"/>
<path id="Vector" d="M32.4268 12.0625C30.4512 10.0937 27.8171 9 25.0366 9C19.2561 9 14.5732 13.6667 14.5732 19.4271C14.5732 21.25 15.0854 23.0729 15.9634 24.6042L14.5 30L20.061 28.5417C21.5976 29.3438 23.2805 29.7813 25.0366 29.7813C30.8171 29.7813 35.5 25.1146 35.5 19.3542C35.4268 16.6563 34.4024 14.0312 32.4268 12.0625ZM30.0854 23.1458C29.8659 23.7292 28.8415 24.3125 28.3293 24.3854C27.8902 24.4583 27.3049 24.4583 26.7195 24.3125C26.3537 24.1667 25.8415 24.0208 25.2561 23.7292C22.622 22.6354 20.939 20.0104 20.7927 19.7917C20.6463 19.6458 19.6951 18.4062 19.6951 17.0937C19.6951 15.7812 20.3537 15.1979 20.5732 14.9062C20.7927 14.6146 21.0854 14.6146 21.3049 14.6146C21.4512 14.6146 21.6707 14.6146 21.8171 14.6146C21.9634 14.6146 22.1829 14.5417 22.4024 15.0521C22.622 15.5625 23.1341 16.875 23.2073 16.9479C23.2805 17.0937 23.2805 17.2396 23.2073 17.3854C23.1341 17.5313 23.061 17.6771 22.9146 17.8229C22.7683 17.9687 22.6219 18.1875 22.5488 18.2604C22.4024 18.4062 22.2561 18.5521 22.4024 18.7708C22.5488 19.0625 23.061 19.8646 23.8659 20.5937C24.8902 21.4687 25.6951 21.7604 25.9878 21.9063C26.2805 22.0521 26.4268 21.9792 26.5732 21.8333C26.7195 21.6875 27.2317 21.1042 27.378 20.8125C27.5244 20.5208 27.7439 20.5938 27.9634 20.6667C28.1829 20.7396 29.5 21.3958 29.7195 21.5417C30.0122 21.6875 30.1585 21.7604 30.2317 21.8333C30.3049 22.0521 30.3049 22.5625 30.0854 23.1458Z" fill="#191919"/>
</g>
<defs>
<filter id="filter0_d_99_520" x="0.5" y="0" width="48" height="48" filterUnits="userSpaceOnUse" color-interpolation-filters="sRGB">
<feFlood flood-opacity="0" result="BackgroundImageFix"/>
<feColorMatrix in="SourceAlpha" type="matrix" values="0 0 0 0 0 0 0 0 0 0 0 0 0 0 0 0 0 0 127 0" result="hardAlpha"/>
<feOffset dy="4"/>
<feGaussianBlur stdDeviation="2"/>
<feComposite in2="hardAlpha" operator="out"/>
<feColorMatrix type="matrix" values="0 0 0 0 0 0 0 0 0 0 0 0 0 0 0 0 0 0 0.25 0"/>
<feBlend mode="normal" in2="BackgroundImageFix" result="effect1_dropShadow_99_520"/>
<feBlend mode="normal" in="SourceGraphic" in2="effect1_dropShadow_99_520" result="shape"/>
</filter>
</defs>
</svg>
